<svg width="39" height="42" viewBox="0 0 39 42" fill="none" xmlns="http://www.w3.org/2000/svg">
<path d="M15.008 7.97302V0.0962524C-3.47245 1.08085 -6.88058 30.543 16.1441 32.5122C29.6558 32.5122 35.3815 18.5764 30.6858 9.03335H16.2198V17.2131H24.7024C24.8539 21.4544 20.6126 25.923 14.4779 24.7869C4.17744 22.2875 5.84374 8.95761 15.008 7.97302Z" fill="#5047EB"/>
<path d="M16.1441 0.0962524V7.59433H31.5189C35.7603 14.1078 36.0784 32.6334 16.1441 33.724V41.9037H38.5V0.0962524H16.1441Z" fill="#5047EB"/>
<path d="M14.9409 41.8971L14.9409 33.8477L8.63414 33.8477C12.312 36.2698 13.9604 40.2232 14.2968 41.8971L14.9409 41.8971Z" fill="#5047EB"/>
</svg>
