<svg width="125" height="46" viewBox="0 0 125 46" fill="none" xmlns="http://www.w3.org/2000/svg">
<path d="M15.008 9.97302V2.09625C-3.47245 3.08085 -6.88058 32.543 16.1441 34.5122C29.6558 34.5122 35.3815 20.5764 30.6858 11.0334H16.2198V19.2131H24.7024C24.8539 23.4544 20.6126 27.923 14.4779 26.7869C4.17744 24.2875 5.84374 10.9576 15.008 9.97302Z" fill="#5047EB"/>
<path d="M16.1441 2.09625V9.59433H31.5189C35.7603 16.1078 36.0784 34.6334 16.1441 35.724V43.9037H38.5V2.09625H16.1441Z" fill="#5047EB"/>
<path d="M14.9409 43.8971L14.9409 35.8477L8.63414 35.8477C12.312 38.2698 13.9604 42.2232 14.2968 43.8971L14.9409 43.8971Z" fill="#5047EB"/>
<path d="M45.0638 30.1072V25.9249H49.3105V28.6274L50.9512 30.2681H55.23L56.7743 28.756V11.4799H61.1496V30.2359L57.3855 34H48.9244L45.0638 30.1072ZM75.3511 11.4799H79.3403L87.5763 34H83.1366L81.3028 29.0134H73.3886L71.5548 34H67.1152L75.3511 11.4799ZM80.3377 25.4102L77.3457 16.8526H77.2814L74.3859 25.4102H80.3377ZM89.6842 11.4799H94.1883L99.7861 28.7882H99.8504L105.448 11.4799H109.952L101.942 34H97.695L89.6842 11.4799ZM116.882 11.4799H121.257V34H116.882V11.4799Z" fill="white"/>
</svg>
